<svg xmlns="http://www.w3.org/2000/svg" viewBox="0 0 2945.83 689.39">
    <defs>
        <style>.cls-1{fill:#fff;}.cls-2{fill:#fbfbfb;}.cls-3{fill:#f5f5f5;}</style>
    </defs>
    <g id="_H_I_D_D_E_N_S_W_O_R_D" data-name="           H I D D E N  S W O R D">
        <path class="cls-1"
            d="M1153.61,191.66h81.11V157.29q0-11-1.31-16.28a17.77,17.77,0,0,0-4.85-8.67,19.47,19.47,0,0,0-7.26-4.5,39.38,39.38,0,0,0-10.68-1.71v-2.47h73v2.47a39,39,0,0,0-10.57,1.71,19.36,19.36,0,0,0-7.25,4.5,17.82,17.82,0,0,0-4.86,8.72c-.87,3.54-1.31,8.94-1.31,16.23v78.92q0,10.92,1.31,16.17a18.51,18.51,0,0,0,4.86,8.78,20.56,20.56,0,0,0,7.25,4.44,37.31,37.31,0,0,0,10.57,1.77v2.47h-73v-2.47a37.64,37.64,0,0,0,10.68-1.77,20.69,20.69,0,0,0,7.26-4.44,17.77,17.77,0,0,0,4.85-8.67q1.32-5.25,1.31-16.28V196.69h-81.11v39.52q0,10.92,1.32,16.22a17.71,17.71,0,0,0,4.85,8.73,19.53,19.53,0,0,0,7.14,4.44,37.78,37.78,0,0,0,10.69,1.77v2.47h-73v-2.47a37.77,37.77,0,0,0,10.68-1.77,19.53,19.53,0,0,0,7.14-4.44,17,17,0,0,0,4.91-8.67q1.26-5.25,1.26-16.28V157.29q0-11-1.26-16.28a17,17,0,0,0-4.91-8.67,18.36,18.36,0,0,0-7.2-4.5,39.73,39.73,0,0,0-10.62-1.71v-2.47h73v2.47a39,39,0,0,0-10.57,1.71,19.32,19.32,0,0,0-7.26,4.5,17.72,17.72,0,0,0-4.85,8.72c-.88,3.54-1.32,8.94-1.32,16.23Z"
            transform="translate(-288.82 -37.8)" />
        <path class="cls-1"
            d="M1373.78,123.66v2.47a39,39,0,0,0-10.57,1.71,19.4,19.4,0,0,0-7.26,4.5q-4.46,4.28-5.48,11.88a109.74,109.74,0,0,0-.68,13.07v78.92a84.19,84.19,0,0,0,.91,14,21.87,21.87,0,0,0,3,8.24,18.21,18.21,0,0,0,7.65,6.38,36,36,0,0,0,12.46,2.51v2.47h-73v-2.47a37.77,37.77,0,0,0,10.68-1.77,19.53,19.53,0,0,0,7.14-4.44,17,17,0,0,0,4.91-8.67q1.26-5.25,1.26-16.28V157.29q0-11-1.26-16.28a17,17,0,0,0-4.91-8.67,18.36,18.36,0,0,0-7.2-4.5,39.73,39.73,0,0,0-10.62-1.71v-2.47Z"
            transform="translate(-288.82 -37.8)" />
        <path class="cls-1"
            d="M1390.82,267.37a38.63,38.63,0,0,0,10.62-1.71,19.41,19.41,0,0,0,7.2-4.5,17.8,17.8,0,0,0,4.86-8.73q1.3-5.3,1.31-16.22V157.29q0-11.79-1.54-17.24a17.22,17.22,0,0,0-6-9q-5.6-4.4-16.45-4.92v-2.47h62.83q20.91,0,26.62.43,24.11,1.71,40.9,12.85a73.22,73.22,0,0,1,24.9,27.79,80.1,80.1,0,0,1,8.91,37.43,76.45,76.45,0,0,1-5.08,27.89,59.56,59.56,0,0,1-14.11,21.79q-12.68,12.21-31.65,15.53a167.51,167.51,0,0,1-28.9,2.47h-84.42Zm49-140.39V233.43q0,10.48,1.26,15.95a20.64,20.64,0,0,0,4.68,9.32q7.31,8.35,23.76,8.35,14.06,0,24-4.34a47.26,47.26,0,0,0,17.88-14.08,66.82,66.82,0,0,0,11.82-21.58,81.25,81.25,0,0,0,4.06-25.86,85,85,0,0,0-4.92-28.91,72.41,72.41,0,0,0-14.05-24,60.41,60.41,0,0,0-30.27-18.85q-9.6-2.46-24.45-2.46Z"
            transform="translate(-288.82 -37.8)" />
        <path class="cls-1"
            d="M1577.28,267.37a38.77,38.77,0,0,0,10.63-1.71,19.45,19.45,0,0,0,7.19-4.5,17.8,17.8,0,0,0,4.86-8.73q1.3-5.3,1.31-16.22V157.29q0-11.79-1.54-17.24a17.22,17.22,0,0,0-6-9q-5.6-4.4-16.45-4.92v-2.47h62.83q20.91,0,26.62.43,24.11,1.71,40.9,12.85a73.22,73.22,0,0,1,24.9,27.79,80.1,80.1,0,0,1,8.91,37.43,76.45,76.45,0,0,1-5.08,27.89,59.56,59.56,0,0,1-14.11,21.79q-12.68,12.21-31.64,15.53a167.71,167.71,0,0,1-28.91,2.47h-84.42Zm49-140.39V233.43q0,10.48,1.26,15.95a20.64,20.64,0,0,0,4.68,9.32q7.3,8.35,23.76,8.35,14.05,0,24-4.34a47.26,47.26,0,0,0,17.88-14.08,66.82,66.82,0,0,0,11.82-21.58,81.25,81.25,0,0,0,4.06-25.86,85,85,0,0,0-4.92-28.91,72.41,72.41,0,0,0-14.05-24,60.41,60.41,0,0,0-30.27-18.85Q1655,127,1640.11,127Z"
            transform="translate(-288.82 -37.8)" />
        <path class="cls-1"
            d="M1886.55,123.66l1.94,35.34-2.63.11a43.63,43.63,0,0,0-4.91-14.89,32.66,32.66,0,0,0-9.94-10.38,34.45,34.45,0,0,0-12.68-5.31,97.57,97.57,0,0,0-19.42-1.55h-26.16v64.25h6.85q10.39,0,15.65-1.28a17.72,17.72,0,0,0,8.57-4.61,19.21,19.21,0,0,0,4.74-7.33,60.05,60.05,0,0,0,2.57-12.48l2.63.11-.46,57.4h-2.62a55.79,55.79,0,0,0-3-13.28,24.91,24.91,0,0,0-5.54-8.57,20.55,20.55,0,0,0-8.91-5,50.63,50.63,0,0,0-13.94-1.61h-6.51v24.53a201.91,201.91,0,0,0,.8,21.36,33.53,33.53,0,0,0,3.08,11.19,23.83,23.83,0,0,0,11.83,11.3q7.93,3.58,21,3.58,13.71,0,23-3.26a34.31,34.31,0,0,0,15.08-10.12,39.42,39.42,0,0,0,6.69-10.49,89.25,89.25,0,0,0,4.74-15.53l2.62.11L1900,269.84H1763.74v-2.47a39.11,39.11,0,0,0,10.57-1.71,19.36,19.36,0,0,0,7.25-4.5,17.8,17.8,0,0,0,4.86-8.73q1.3-5.3,1.31-16.22V157.29c0-7.29-.44-12.69-1.31-16.23a17.82,17.82,0,0,0-4.86-8.72,18.28,18.28,0,0,0-7.14-4.5,39.38,39.38,0,0,0-10.68-1.71v-2.47Z"
            transform="translate(-288.82 -37.8)" />
        <path class="cls-1"
            d="M1944,143.05v93.16q0,11,1.32,16.28a17.7,17.7,0,0,0,4.85,8.67,19.32,19.32,0,0,0,7.26,4.5,39,39,0,0,0,10.56,1.71v2.47h-52.66v-2.47a39.11,39.11,0,0,0,10.57-1.71,19.36,19.36,0,0,0,7.25-4.5,17.8,17.8,0,0,0,4.86-8.73q1.31-5.3,1.31-16.22v-79q0-10.81-1.31-16.12a17.82,17.82,0,0,0-4.86-8.72,18.43,18.43,0,0,0-7.14-4.5,39.38,39.38,0,0,0-10.68-1.71v-2.47h44L2052.1,234.6V157.29q0-11-1.31-16.28a17.79,17.79,0,0,0-4.86-8.67,19.36,19.36,0,0,0-7.25-4.5,39,39,0,0,0-10.57-1.71v-2.47h52.67v2.47q-11.43,0-17.82,6.21a17.66,17.66,0,0,0-4.86,8.72q-1.32,5.31-1.31,16.12V269.84h-5.14Z"
            transform="translate(-288.82 -37.8)" />
        <path class="cls-1"
            d="M2155,269.41l.34-44.23,2.63.11q4.79,16.88,11.42,26.6,12.45,17.94,31.3,17.95,13.14,0,21.71-8.25t8.56-20.88a35.11,35.11,0,0,0-1.88-11.14,32,32,0,0,0-5.08-9.74,38,38,0,0,0-9.31-8,179.17,179.17,0,0,0-18.34-9.74,186.81,186.81,0,0,1-16.62-8.67,47.66,47.66,0,0,1-9.31-7.18,33.79,33.79,0,0,1-9.83-24.52,40.3,40.3,0,0,1,3.83-17.14,41.45,41.45,0,0,1,10.68-14.13,42.34,42.34,0,0,1,28.68-10.5,45.55,45.55,0,0,1,9.93,1,88.85,88.85,0,0,1,12.23,4q5.72,2.14,7.77,2.73a13.51,13.51,0,0,0,3.65.59q4,0,5.37-5.47h2.63l.8,42.52h-2.63q-3.08-10.17-5.3-15.58a57.79,57.79,0,0,0-5.3-10q-5.59-8.34-12.32-12.36a29.68,29.68,0,0,0-15.51-4q-12.78,0-20.18,8.15a25.59,25.59,0,0,0-6.62,16.83q0,17.9,24.53,28.83l16.08,7.29q18.59,8.25,26.81,18.22a39.19,39.19,0,0,1,9.35,26,43.57,43.57,0,0,1-4.23,18.8A42.85,42.85,0,0,1,2233,266.69q-11.88,6.78-28,6.79a75.33,75.33,0,0,1-28.33-5.47c-4.72-1.92-7.54-3-8.45-3.31a10.21,10.21,0,0,0-3.09-.43,7.51,7.51,0,0,0-7.54,5.14Z"
            transform="translate(-288.82 -37.8)" />
        <path class="cls-1"
            d="M2264.92,123.66h71.85v2.47q-10,0-13.71,1.39a11.09,11.09,0,0,0-5,4.17,11.43,11.43,0,0,0-1.94,6.54c0,3,1.21,7.14,3.65,12.42l3,6.64,35.53,81.38L2383,168.53q4.8-13.49,4.8-20.13a25.33,25.33,0,0,0-1.89-9.59,20.71,20.71,0,0,0-5-7.54,17.25,17.25,0,0,0-6.79-4,34.14,34.14,0,0,0-9.77-1.17v-2.47h73.45v2.47a79.46,79.46,0,0,0-9.76.42,17.39,17.39,0,0,0-5.66,1.82,15.38,15.38,0,0,0-7.65,13.28q0,3.85,3.2,13.39L2446.1,240l31.42-72.28q7.3-16.6,7.31-25.71,0-9.53-6.74-13.49-4.12-2.35-12.46-2.35v-2.47h52.9v2.47q-7.67.75-11.6,2.73t-7.82,7.22q-5.71,7.5-14.28,27.1l-47,106.66h-4.68l-40.67-114-41.24,114h-5.14l-51.06-115.23-3.43-7.82a79.92,79.92,0,0,0-5.94-11.45,18.18,18.18,0,0,0-5.83-5.57,19.42,19.42,0,0,0-5.94-2.47,61.06,61.06,0,0,0-9-1.17Z"
            transform="translate(-288.82 -37.8)" />
        <path class="cls-1"
            d="M2529.62,197.71a69.63,69.63,0,0,1,8.23-33.38q8.22-15.37,24-26.84a94.77,94.77,0,0,1,25.36-13,85.68,85.68,0,0,1,27.41-4.56,83.81,83.81,0,0,1,34,7.24,87.08,87.08,0,0,1,28.79,20.41q20.1,21.44,20.1,48.76a68.86,68.86,0,0,1-5.25,26.47A74.68,74.68,0,0,1,2677,246a86.13,86.13,0,0,1-29.19,20.26,90,90,0,0,1-70,.21,82.8,82.8,0,0,1-28.56-19.72,71,71,0,0,1-19.65-49.08Zm27.65,1.61q0,31.08,18.05,52.4,8.1,9.54,17.19,13.88a48,48,0,0,0,21,4.34,48.86,48.86,0,0,0,21.08-4.29q9.07-4.27,17.31-13.93,18-21.42,18-52.83a105.56,105.56,0,0,0-5-32.63,76.53,76.53,0,0,0-14-26.09,45.43,45.43,0,0,0-16.28-12.81q-9-4-21.19-4t-21,4a46.68,46.68,0,0,0-16.39,12.86,74.36,74.36,0,0,0-13.94,26A108.34,108.34,0,0,0,2557.27,199.32Z"
            transform="translate(-288.82 -37.8)" />
        <path class="cls-1"
            d="M2767,198.3v37.91q0,10.92,1.31,16.22a17.8,17.8,0,0,0,4.86,8.73,19.44,19.44,0,0,0,7.14,4.44,37.64,37.64,0,0,0,10.68,1.77v2.47h-73v-2.47a37.64,37.64,0,0,0,10.68-1.77,19.36,19.36,0,0,0,7.14-4.44,17,17,0,0,0,4.92-8.67q1.24-5.25,1.25-16.28V157.29q0-11-1.25-16.28a17,17,0,0,0-4.92-8.67,18.25,18.25,0,0,0-7.19-4.5,39.81,39.81,0,0,0-10.63-1.71v-2.47h55.07q13.82,0,18.16.11,17.7.75,27.76,4.5,11.31,4.28,17.53,12.79a32.62,32.62,0,0,1,6.23,19.76q0,16.71-13.48,26.77a39.88,39.88,0,0,1-9.08,4.93,86.08,86.08,0,0,1-13.31,3.64,35.08,35.08,0,0,1,10.17,5.57,25.26,25.26,0,0,1,4.79,5.62q2.18,3.38,6.52,11.94,10.15,19.61,15.36,28.65a88,88,0,0,0,8.74,13.11,17.77,17.77,0,0,0,5.54,4.61,22.16,22.16,0,0,0,7.37,1.71v2.47h-37.93q-2.85-5.89-3.65-7.5l-8-17a267.24,267.24,0,0,0-14.51-27.09q-7.3-11.67-13.36-16a20.77,20.77,0,0,0-6.63-3,35.72,35.72,0,0,0-8.68-.91Zm0-2.35h4.34q14.16,0,20.28-1.5a27.21,27.21,0,0,0,11.48-6.21,34.18,34.18,0,0,0,12-26.56,37.07,37.07,0,0,0-3.49-15.9,33.1,33.1,0,0,0-9.65-12.27,28.82,28.82,0,0,0-11.43-5.08q-6.62-1.46-18.85-1.45H2767Z"
            transform="translate(-288.82 -37.8)" />
        <path class="cls-1"
            d="M2873.5,267.37a38.77,38.77,0,0,0,10.63-1.71,19.57,19.57,0,0,0,7.2-4.5,17.87,17.87,0,0,0,4.85-8.73q1.31-5.3,1.31-16.22V157.29q0-11.79-1.54-17.24a17.22,17.22,0,0,0-6-9q-5.6-4.4-16.45-4.92v-2.47h62.83q20.91,0,26.62.43,24.11,1.71,40.9,12.85a73.22,73.22,0,0,1,24.9,27.79,80.1,80.1,0,0,1,8.91,37.43,76.45,76.45,0,0,1-5.08,27.89,59.44,59.44,0,0,1-14.11,21.79q-12.67,12.21-31.64,15.53a167.68,167.68,0,0,1-28.9,2.47H2873.5Zm49-140.39V233.43q0,10.48,1.26,15.95a20.84,20.84,0,0,0,4.68,9.32q7.32,8.35,23.76,8.35,14.05,0,24.05-4.34a47.26,47.26,0,0,0,17.88-14.08A66.64,66.64,0,0,0,3006,227.05a81,81,0,0,0,4.06-25.86,85.19,85.19,0,0,0-4.91-28.91,72.58,72.58,0,0,0-14.05-24,60.48,60.48,0,0,0-30.28-18.85q-9.6-2.46-24.45-2.46Z"
            transform="translate(-288.82 -37.8)" />
        <path class="cls-1"
            d="M1049.75,615.67v-2q9.2,0,14.22-4.87a14.21,14.21,0,0,0,3.87-7,58.38,58.38,0,0,0,1.05-12.95v-63q0-9.06-1.14-13.37a13.82,13.82,0,0,0-4.24-7.05,16.24,16.24,0,0,0-5.7-3.25,29.79,29.79,0,0,0-8.06-1.2v-2H1108v2a33.05,33.05,0,0,0-8.21,1.28,15.42,15.42,0,0,0-5.65,3.25,14.07,14.07,0,0,0-4.19,7.09q-1.1,4.27-1.1,13.25v49.3a163.91,163.91,0,0,0,.64,16.92,26.43,26.43,0,0,0,2.46,9.06,19.48,19.48,0,0,0,9.48,9q6.3,2.87,16.68,2.87,10.86,0,18.28-2.7a28,28,0,0,0,12.17-8.33,34.27,34.27,0,0,0,5.24-8.71,75.4,75.4,0,0,0,3.79-12.82l2.18.17-1.18,35Z"
            transform="translate(-288.82 -37.8)" />
        <path class="cls-1"
            d="M1162.14,544.84l26.25-3.08V591l.09,6.47a35.69,35.69,0,0,0,.73,8.47,8.77,8.77,0,0,0,2.83,4.47q2.55,2.29,9.39,3.49v1.79h-40.29v-1.79A25,25,0,0,0,1169,612a9,9,0,0,0,3.83-4.21,17.81,17.81,0,0,0,1.41-5.91c.27-2.63.41-6.45.41-11.43v-21a109.45,109.45,0,0,0-.46-12.29,12.74,12.74,0,0,0-2-5.74,9.47,9.47,0,0,0-3.74-3.44,17.24,17.24,0,0,0-6.29-1.32Zm19-33.75a8.46,8.46,0,0,1-5.92-2.14,7.29,7.29,0,0,1,0-10.73,9,9,0,0,1,11.73,0,7.27,7.27,0,0,1,0,10.73A8.45,8.45,0,0,1,1181.15,511.09Z"
            transform="translate(-288.82 -37.8)" />
        <path class="cls-1"
            d="M1217.94,622.94l-1.64.43a10.59,10.59,0,0,0-3.1-3.34,7.34,7.34,0,0,0-3.83-.94,7.92,7.92,0,0,0-6.24,2.74,10.3,10.3,0,0,0-2.42,7.09q0,6.92,7.38,11.36t18.87,4.45q12.22,0,19.74-4.92t7.52-12.77a11,11,0,0,0-5-9.7q-5-3.37-14.32-3.37H1220.4q-8.94,0-14.4-4-5.65-4.11-5.65-9.86,0-6.07,6-9.6,3.11-1.71,11.31-3.68a30.57,30.57,0,0,1-12.31-9,19.5,19.5,0,0,1-4.38-12.32q0-8.62,6.84-15.35a28.26,28.26,0,0,1,9.49-6.23,29.61,29.61,0,0,1,11.22-2.22q8.76,0,17.88,5.81a34.38,34.38,0,0,1,7.72-4.48,20.34,20.34,0,0,1,7.45-1.33,13,13,0,0,1,7.22,1.8q3.29,2.22,3.29,5.46a4.51,4.51,0,0,1-1.29,3.29,4.28,4.28,0,0,1-3.22,1.33,6.89,6.89,0,0,1-5.34-2.91l-2.09-2.56a6.05,6.05,0,0,0-4.91-2c-2.24,0-4.61,1-7.09,3.16q7.44,8.46,7.44,17.43,0,11.2-10.61,17.69a32.8,32.8,0,0,1-11.42,4.36q-1.83.25-11.61.85-13.4.78-13.4,7,0,5.48,11.41,5.47H1235a58.25,58.25,0,0,1,13.42,1.32,28.82,28.82,0,0,1,9.58,4.15q8,5.55,8,15.63a19.75,19.75,0,0,1-9.31,17.35q-9.59,6.4-28.11,6.41-19.9,0-28.21-7.52a15.8,15.8,0,0,1-5.29-12.13,13.3,13.3,0,0,1,3.92-9.7,12.92,12.92,0,0,1,9.57-4,9.69,9.69,0,0,1,6.7,2.31,7.74,7.74,0,0,1,2.6,6.07ZM1214,566.16q0,9.21,4.13,15t10.59,5.79a11.42,11.42,0,0,0,10.18-5.75q3.63-5.76,3.63-16,0-10.58-4.72-16.89a10.6,10.6,0,0,0-8.91-4.69q-6.54,0-10.54,6.14a26.09,26.09,0,0,0-3.18,7.51A34.17,34.17,0,0,0,1214,566.16Z"
            transform="translate(-288.82 -37.8)" />
        <path class="cls-1"
            d="M1288.05,495.62v58.52a51.14,51.14,0,0,1,5.65-5.72,24.64,24.64,0,0,1,5.93-3.58,35.66,35.66,0,0,1,15.13-3.08q10.76,0,17.77,4a16.16,16.16,0,0,1,6.89,7.3q1.86,4.3,1.86,12.93v24.92l.1,6.49a36,36,0,0,0,.72,8.49,8.79,8.79,0,0,0,2.83,4.48q2.55,2.31,9.39,3.5v1.79h-40.26v-1.79a28.89,28.89,0,0,0,6.86-1.45,9.38,9.38,0,0,0,3.69-2.9,13.08,13.08,0,0,0,2.27-5.8,67.79,67.79,0,0,0,.64-10.85v-27a38,38,0,0,0-1-9.73,15.47,15.47,0,0,0-3.37-6.23q-4.64-5-13.09-5-22,0-22,32.6v13.65l.09,6.32a35.29,35.29,0,0,0,.73,8.49,8.71,8.71,0,0,0,2.82,4.48c1.69,1.54,4.82,2.71,9.36,3.5v1.79h-40.26v-1.79a24.58,24.58,0,0,0,7.84-1.92,9,9,0,0,0,3.83-4.22,17.52,17.52,0,0,0,1.41-5.93c.28-2.65.41-6.47.41-11.48v-67a113.52,113.52,0,0,0-.45-12.28,12.83,12.83,0,0,0-2-5.8,9,9,0,0,0-3.73-3.41,17.83,17.83,0,0,0-6.29-1.28v-1.89Z"
            transform="translate(-288.82 -37.8)" />
        <path class="cls-1"
            d="M1371,543h23.16v3.25H1371V596q0,9,3.27,12.82a11.54,11.54,0,0,0,4.55,3.33,15.31,15.31,0,0,0,6.08,1.2,13.47,13.47,0,0,0,6.82-1.58,22.94,22.94,0,0,0,6-5.77l1.37,1.11a18.52,18.52,0,0,1-8.43,7.61,32.64,32.64,0,0,1-13.54,2.47q-10.75,0-15.68-3.93a9.39,9.39,0,0,1-3.46-4.91q-.82-2.86-.82-10.3V546.29h-9.76v-1.37a25.73,25.73,0,0,0,10.95-6.92,34.25,34.25,0,0,0,4.86-6.28,43.1,43.1,0,0,0,3.49-8.07l.92-2.82H1371Z"
            transform="translate(-288.82 -37.8)" />
        <path class="cls-1"
            d="M1447.33,546.29v44.63l.09,6.49a35.29,35.29,0,0,0,.73,8.49,8.79,8.79,0,0,0,2.83,4.48q2.55,2.31,9.39,3.5v1.79h-40.29v-1.79a24.73,24.73,0,0,0,7.84-1.92,9,9,0,0,0,3.82-4.22,17.73,17.73,0,0,0,1.42-5.93q.4-4,.41-11.48v-44h-13.22V543h13.22V522.19q0-7.52,2.06-11.87a21.06,21.06,0,0,1,7.39-8,37.94,37.94,0,0,1,11.65-5.08,56.35,56.35,0,0,1,14.54-1.84q7.11,0,11.39,2.31t4.29,6.15a5.68,5.68,0,0,1-1.78,4.27,6,6,0,0,1-4.33,1.71,7.38,7.38,0,0,1-4.28-1.24,13.8,13.8,0,0,1-3.65-4.05,21.62,21.62,0,0,0-4.19-5.17,7.25,7.25,0,0,0-4.47-1.24,16.54,16.54,0,0,0-6.56,1.32,12.22,12.22,0,0,0-4.83,3.46,14.07,14.07,0,0,0-2.65,6.28,64.9,64.9,0,0,0-.73,11.24V543h18v3.25Z"
            transform="translate(-288.82 -37.8)" />
        <path class="cls-1"
            d="M1464.21,579.62q0-13.85,10.93-24.7a44.93,44.93,0,0,1,63.54,0q10.93,10.94,10.94,24.78,0,13.68-10.39,24.35-12.76,13.17-32.27,13.16t-32.36-13.16a36.86,36.86,0,0,1-7.71-11.45A32.87,32.87,0,0,1,1464.21,579.62Zm16.59-1q0,14.86,7.11,25.18,8,11.52,19.59,11.52a19.58,19.58,0,0,0,9.58-2.56,24.47,24.47,0,0,0,8-7.17,38.78,38.78,0,0,0,5.74-12,48,48,0,0,0,2.19-14,45.35,45.35,0,0,0-2.33-14.13,40.75,40.75,0,0,0-6.24-12.24q-7.47-9.64-18.32-9.65-10.31,0-17.78,10.16T1480.8,578.63Z"
            transform="translate(-288.82 -37.8)" />
        <path class="cls-1"
            d="M1572.6,554.91a25.3,25.3,0,0,1,7.39-8.11,30.33,30.33,0,0,1,17.22-5q5.93,0,9,2.48a6.72,6.72,0,0,1,2.82,5.46,5.08,5.08,0,0,1-1.68,3.93,6.22,6.22,0,0,1-4.33,1.54,7.2,7.2,0,0,1-5.38-2.39l-2.83-2.9a10.92,10.92,0,0,0-7.93-3.33q-6.2,0-9.66,7.51T1573.79,575v15.95l.09,6.49a35.29,35.29,0,0,0,.73,8.49,8.71,8.71,0,0,0,2.82,4.48q2.55,2.31,9.39,3.5v1.79h-40.29v-1.79a24.9,24.9,0,0,0,7.84-1.91,9,9,0,0,0,3.83-4.21,17.32,17.32,0,0,0,1.41-5.91c.28-2.63.41-6.45.41-11.43v-21a112.72,112.72,0,0,0-.45-12.29,12.87,12.87,0,0,0-2-5.74,9.4,9.4,0,0,0-3.74-3.44,17.19,17.19,0,0,0-6.29-1.32v-1.79l23.5-3.08A67,67,0,0,1,1572.6,554.91Z"
            transform="translate(-288.82 -37.8)" />
        <path class="cls-1"
            d="M1659.31,543h23.16v3.25h-23.16V596q0,9,3.27,12.82a11.61,11.61,0,0,0,4.55,3.33,15.31,15.31,0,0,0,6.08,1.2,13.47,13.47,0,0,0,6.82-1.58,23,23,0,0,0,6-5.77l1.36,1.11a18.52,18.52,0,0,1-8.43,7.61,32.64,32.64,0,0,1-13.54,2.47q-10.76,0-15.68-3.93a9.45,9.45,0,0,1-3.46-4.91q-.83-2.86-.82-10.3V546.29h-9.76v-1.37a25.73,25.73,0,0,0,11-6.92,34.25,34.25,0,0,0,4.86-6.28,42.45,42.45,0,0,0,3.49-8.07l.92-2.82h3.39Z"
            transform="translate(-288.82 -37.8)" />
        <path class="cls-1"
            d="M1700.16,495.62v58.52a52,52,0,0,1,5.65-5.72,24.84,24.84,0,0,1,5.93-3.58,35.66,35.66,0,0,1,15.13-3.08q10.76,0,17.78,4a16.13,16.13,0,0,1,6.88,7.3q1.86,4.3,1.87,12.93v24.92l.09,6.49a35.29,35.29,0,0,0,.73,8.49,8.71,8.71,0,0,0,2.82,4.48q2.55,2.31,9.39,3.5v1.79h-40.26v-1.79a29,29,0,0,0,6.87-1.45,9.42,9.42,0,0,0,3.68-2.9,13.2,13.2,0,0,0,2.28-5.8,69.25,69.25,0,0,0,.63-10.85v-27a37.53,37.53,0,0,0-1-9.73,15.57,15.57,0,0,0-3.36-6.23q-4.65-5-13.1-5-22,0-22,32.6v13.65l.09,6.32a35.83,35.83,0,0,0,.73,8.49,8.78,8.78,0,0,0,2.82,4.48q2.55,2.31,9.37,3.5v1.79h-40.26v-1.79a24.73,24.73,0,0,0,7.84-1.92,8.93,8.93,0,0,0,3.82-4.22,17.73,17.73,0,0,0,1.42-5.93c.27-2.65.41-6.47.41-11.48v-67a112.79,112.79,0,0,0-.46-12.28,12.83,12.83,0,0,0-2-5.8,9,9,0,0,0-3.74-3.41,17.83,17.83,0,0,0-6.29-1.28v-1.89Z"
            transform="translate(-288.82 -37.8)" />
        <path class="cls-1"
            d="M1778.84,569.19c-.24,2.79-.36,4.82-.36,6.07a46.57,46.57,0,0,0,2.31,14.52,34.61,34.61,0,0,0,6.32,11.8,28.53,28.53,0,0,0,10.13,7.51,30.25,30.25,0,0,0,12.67,2.74,27.94,27.94,0,0,0,9.31-1.54,20.1,20.1,0,0,0,7.31-4.27q3.27-3,5.64-9.57l1.91.6q-2.37,10-10.16,15.08t-20.74,5.08q-11.22,0-19.23-3.33a33.9,33.9,0,0,1-13.59-10.25q-7.74-9.66-7.75-23.76,0-19.23,14.68-30.16a39.66,39.66,0,0,1,24.34-8,36.43,36.43,0,0,1,13.49,2.44,28,28,0,0,1,10.48,7q6.66,7.17,6.66,17.94Zm39.74-3.33q-.63-8.55-3.35-13.16a18.37,18.37,0,0,0-6.54-6.62,16.65,16.65,0,0,0-8.71-2.44q-7.8,0-13.65,6.32a27.25,27.25,0,0,0-6.95,15.9Z"
            transform="translate(-288.82 -37.8)" />
        <path class="cls-1"
            d="M1863.82,543h35.46v1.88q-10.21.51-10.21,7.42,0,3.42,3.62,14.17l11.06,31.82,15.53-38.48a20,20,0,0,0,1.83-7.16q0-7.34-9.48-7.77V543h34.91v1.88a16.11,16.11,0,0,0-6.29,1.8,6.24,6.24,0,0,0-2.91,5.62,30.36,30.36,0,0,0,1.72,8.45l12,37.54,14.14-33.79q2.71-6.56,2.72-10a8.2,8.2,0,0,0-3.43-7.08,18.21,18.21,0,0,0-6.23-2.56V543h26.8v1.88a11.19,11.19,0,0,0-7,2.39,14.68,14.68,0,0,0-3.78,4.4,70.69,70.69,0,0,0-4.24,8.83l-1.92,4.35-21.69,50.78h-3.19l-19.92-57.08-24,57.08h-3.1L1878,564l-2.2-6.24q-3-8.44-6.2-10.66a14.5,14.5,0,0,0-5.74-2.14Z"
            transform="translate(-288.82 -37.8)" />
        <path class="cls-1"
            d="M1972.31,544.84l26.25-3.08V591l.09,6.47a35.16,35.16,0,0,0,.73,8.47,8.77,8.77,0,0,0,2.83,4.47q2.55,2.29,9.39,3.49v1.79h-40.3v-1.79a24.9,24.9,0,0,0,7.84-1.91,9,9,0,0,0,3.83-4.21,17.53,17.53,0,0,0,1.42-5.91c.27-2.63.41-6.45.41-11.43v-21a112,112,0,0,0-.46-12.29,12.63,12.63,0,0,0-2-5.74,9.38,9.38,0,0,0-3.73-3.44,17.29,17.29,0,0,0-6.29-1.32Zm19-33.75a8.45,8.45,0,0,1-5.91-2.14,7.27,7.27,0,0,1,0-10.73,9,9,0,0,1,11.73,0,7.29,7.29,0,0,1,0,10.73A8.46,8.46,0,0,1,1991.31,511.09Z"
            transform="translate(-288.82 -37.8)" />
        <path class="cls-1"
            d="M2011.61,615.67V591.49h1.46a45.61,45.61,0,0,0,6.36,14.19q7,9.66,16.37,9.65a15.71,15.71,0,0,0,9.91-3.24q4.54-3.6,4.55-10.17a14.4,14.4,0,0,0-3.28-9.4,20.41,20.41,0,0,0-4.59-3.93,103.33,103.33,0,0,0-9.32-5q-11.46-5.73-15.28-9.57a17.43,17.43,0,0,1-5.45-12.65,18.19,18.19,0,0,1,5.47-13.24q6.29-6.33,16.68-6.33a23.91,23.91,0,0,1,8.66,1.54l3.1,1.28a7.87,7.87,0,0,0,2.55.51c1.15,0,2.25-.85,3.28-2.56h1.82l1,19.4H2053a37.47,37.47,0,0,0-2.13-6.58,19.14,19.14,0,0,0-3.23-4.79,20.72,20.72,0,0,0-6.55-5.08,16.45,16.45,0,0,0-7.36-1.84,12.08,12.08,0,0,0-8.68,3.46,11.36,11.36,0,0,0-3.59,8.5,10.7,10.7,0,0,0,3.23,7.57q3.22,3.38,10,6.19l9.64,4.1q8.64,3.67,12.92,9.15a20.36,20.36,0,0,1,4.27,12.9,19.66,19.66,0,0,1-6.2,14.87q-7.11,6.84-18.23,6.83a36,36,0,0,1-12.21-2.22q-4-1.46-4.84-1.66a8.05,8.05,0,0,0-2.09-.22,5.38,5.38,0,0,0-4.83,2.56Z"
            transform="translate(-288.82 -37.8)" />
        <path class="cls-1"
            d="M2079.44,569.19c-.24,2.79-.37,4.82-.37,6.07a46.58,46.58,0,0,0,2.32,14.52,34.6,34.6,0,0,0,6.31,11.8,28.71,28.71,0,0,0,10.13,7.51,30.33,30.33,0,0,0,12.68,2.74,27.94,27.94,0,0,0,9.31-1.54,20.27,20.27,0,0,0,7.31-4.27q3.27-3,5.64-9.57l1.91.6q-2.37,10-10.16,15.08t-20.74,5.08q-11.22,0-19.24-3.33A33.93,33.93,0,0,1,2071,603.63q-7.76-9.66-7.75-23.76,0-19.23,14.68-30.16a39.66,39.66,0,0,1,24.34-8,36.43,36.43,0,0,1,13.49,2.44,28,28,0,0,1,10.48,7q6.66,7.17,6.66,17.94Zm39.74-3.33q-.63-8.55-3.35-13.16a18.45,18.45,0,0,0-6.54-6.62,16.65,16.65,0,0,0-8.71-2.44q-7.8,0-13.66,6.32a27.3,27.3,0,0,0-6.94,15.9Z"
            transform="translate(-288.82 -37.8)" />
        <path class="cls-1"
            d="M2169.52,544.84l26.26-3.08V591l.09,6.47a35.16,35.16,0,0,0,.73,8.47,8.68,8.68,0,0,0,2.82,4.47q2.55,2.29,9.39,3.49v1.79h-40.29v-1.79a24.9,24.9,0,0,0,7.84-1.91,9,9,0,0,0,3.83-4.21,17.32,17.32,0,0,0,1.41-5.91c.28-2.63.41-6.45.41-11.43v-21a112.72,112.72,0,0,0-.45-12.29,12.87,12.87,0,0,0-2-5.74,9.4,9.4,0,0,0-3.74-3.44,17.24,17.24,0,0,0-6.29-1.32Zm19-33.75a8.45,8.45,0,0,1-5.91-2.14,7.28,7.28,0,0,1,0-10.73,9,9,0,0,1,11.74,0,7.28,7.28,0,0,1,0,10.73A8.45,8.45,0,0,1,2188.53,511.09Z"
            transform="translate(-288.82 -37.8)" />
        <path class="cls-1"
            d="M2228.5,541.76a37.18,37.18,0,0,1,1.29,9.28v1.37a37.86,37.86,0,0,1,26.89-10.65q11.67,0,18.78,5.12t7,14.34v36.19a35.29,35.29,0,0,0,.73,8.49,8.71,8.71,0,0,0,2.82,4.48q2.55,2.31,9.39,3.5v1.79h-40.29v-1.79A24.58,24.58,0,0,0,2263,612a9,9,0,0,0,3.83-4.22,17.52,17.52,0,0,0,1.41-5.93c.28-2.65.41-6.45.41-11.4V572.32a98.58,98.58,0,0,0-.68-13.66,16.15,16.15,0,0,0-2.59-7,13.69,13.69,0,0,0-6-4.66,22,22,0,0,0-8.64-1.66,24.05,24.05,0,0,0-9.51,1.88,17.1,17.1,0,0,0-6.95,5.12,17.82,17.82,0,0,0-3.6,7.72,82.74,82.74,0,0,0-.86,14.3v16.72l.09,6.32a35.29,35.29,0,0,0,.73,8.49,8.79,8.79,0,0,0,2.83,4.48q2.55,2.31,9.38,3.5v1.79h-40.29v-1.79a24.9,24.9,0,0,0,7.84-1.91,9,9,0,0,0,3.83-4.21,17.32,17.32,0,0,0,1.41-5.91c.28-2.63.41-6.45.41-11.43v-21a112.72,112.72,0,0,0-.45-12.29,12.75,12.75,0,0,0-2-5.74,9.44,9.44,0,0,0-3.73-3.44,17.29,17.29,0,0,0-6.29-1.32v-1.79Z"
            transform="translate(-288.82 -37.8)" />
        <path class="cls-1"
            d="M2347.58,543h23.16v3.25h-23.16V596q0,9,3.28,12.82a11.51,11.51,0,0,0,4.54,3.33,15.35,15.35,0,0,0,6.09,1.2,13.45,13.45,0,0,0,6.81-1.58,23,23,0,0,0,6-5.77l1.36,1.11a18.47,18.47,0,0,1-8.43,7.61,32.64,32.64,0,0,1-13.54,2.47q-10.76,0-15.68-3.93a9.45,9.45,0,0,1-3.46-4.91q-.83-2.86-.82-10.3V546.29H2324v-1.37a25.73,25.73,0,0,0,11-6.92,34.25,34.25,0,0,0,4.86-6.28,42.45,42.45,0,0,0,3.49-8.07l.92-2.82h3.39Z"
            transform="translate(-288.82 -37.8)" />
        <path class="cls-1"
            d="M2388.43,495.62v58.52a51.12,51.12,0,0,1,5.66-5.72,24.77,24.77,0,0,1,5.92-3.58,35.69,35.69,0,0,1,15.13-3.08q10.76,0,17.78,4a16.13,16.13,0,0,1,6.88,7.3q1.86,4.3,1.87,12.93v24.92l.09,6.49a35.29,35.29,0,0,0,.73,8.49,8.79,8.79,0,0,0,2.83,4.48q2.55,2.31,9.38,3.5v1.79h-40.26v-1.79a28.88,28.88,0,0,0,6.87-1.45,9.42,9.42,0,0,0,3.68-2.9,13.09,13.09,0,0,0,2.28-5.8,69.25,69.25,0,0,0,.63-10.85v-27a37.53,37.53,0,0,0-1-9.73,15.45,15.45,0,0,0-3.36-6.23q-4.64-5-13.1-5-22,0-22,32.6v13.65l.1,6.32a36,36,0,0,0,.72,8.49,8.84,8.84,0,0,0,2.82,4.48q2.55,2.31,9.37,3.5v1.79h-40.26v-1.79A24.65,24.65,0,0,0,2369,612a9,9,0,0,0,3.83-4.22,17.76,17.76,0,0,0,1.41-5.93c.27-2.65.41-6.47.41-11.48v-67a110.22,110.22,0,0,0-.46-12.28,12.83,12.83,0,0,0-2-5.8,9,9,0,0,0-3.74-3.41,17.78,17.78,0,0,0-6.29-1.28v-1.89Z"
            transform="translate(-288.82 -37.8)" />
        <path class="cls-1"
            d="M2467.11,569.19c-.24,2.79-.36,4.82-.36,6.07a46.57,46.57,0,0,0,2.31,14.52,34.61,34.61,0,0,0,6.32,11.8,28.53,28.53,0,0,0,10.13,7.51,30.29,30.29,0,0,0,12.67,2.74,27.94,27.94,0,0,0,9.31-1.54,20.23,20.23,0,0,0,7.32-4.27q3.27-3,5.63-9.57l1.91.6q-2.37,10-10.16,15.08t-20.74,5.08q-11.2,0-19.23-3.33a33.9,33.9,0,0,1-13.59-10.25q-7.74-9.66-7.74-23.76,0-19.23,14.67-30.16a39.68,39.68,0,0,1,24.34-8,36.43,36.43,0,0,1,13.49,2.44,28.09,28.09,0,0,1,10.49,7q6.64,7.17,6.65,17.94Zm39.75-3.33q-.65-8.55-3.36-13.16a18.34,18.34,0,0,0-6.53-6.62,16.71,16.71,0,0,0-8.72-2.44q-7.8,0-13.65,6.32a27.24,27.24,0,0,0-6.94,15.9Z"
            transform="translate(-288.82 -37.8)" />
        <path class="cls-1"
            d="M2558.2,615.67v-2q9.21,0,14.22-4.87a14.13,14.13,0,0,0,3.87-7,58.38,58.38,0,0,0,1.05-12.95v-63q0-9.06-1.14-13.37a13.82,13.82,0,0,0-4.24-7.05,16.28,16.28,0,0,0-5.69-3.25,29.93,29.93,0,0,0-8.07-1.2v-2h58.25v2a33,33,0,0,0-8.2,1.28,15.46,15.46,0,0,0-5.66,3.25,14.14,14.14,0,0,0-4.19,7.09q-1.09,4.27-1.09,13.25v49.3a164.57,164.57,0,0,0,.63,16.92,26.19,26.19,0,0,0,2.47,9.06,19.4,19.4,0,0,0,9.48,9q6.29,2.87,16.68,2.87,10.84,0,18.27-2.7A27.92,27.92,0,0,0,2657,602a34.27,34.27,0,0,0,5.24-8.71,75.4,75.4,0,0,0,3.79-12.82l2.19.17-1.19,35Z"
            transform="translate(-288.82 -37.8)" />
        <path class="cls-1"
            d="M2736.88,607.39l1.55.85q-3.29,9-15,9a18.38,18.38,0,0,1-10.78-3,23.13,23.13,0,0,1-5.84-6.83,60.54,60.54,0,0,1-9.22,6.75,29.55,29.55,0,0,1-13.78,3.07q-10,0-15.94-4.53a14.6,14.6,0,0,1-5.88-12.21,16.05,16.05,0,0,1,4.83-11.88,21.35,21.35,0,0,1,6.29-4.23,62.94,62.94,0,0,1,10.3-3.21q7.93-1.87,11.71-3.16a25,25,0,0,0,6.34-3.07,10.46,10.46,0,0,0,4-4.62,19.76,19.76,0,0,0,1.09-7.35q0-10-4-14.61a13.14,13.14,0,0,0-4.69-3.42,14.6,14.6,0,0,0-6-1.28,12.42,12.42,0,0,0-6.66,1.8,11.18,11.18,0,0,0-4.37,4.95l-2.28,5a6.6,6.6,0,0,1-6.57,4,7.41,7.41,0,0,1-5.19-1.92,6.27,6.27,0,0,1-2.1-4.83q0-4.35,6.58-7.35a42.46,42.46,0,0,1,8.81-2.52,56.17,56.17,0,0,1,10.27-1,54.13,54.13,0,0,1,11.78,1.37,42.36,42.36,0,0,1,10.22,3.5q5.94,3.17,7.4,8.21a35.12,35.12,0,0,1,.73,8.63v31.61c0,5.36.24,9,.73,10.94q1.55,6.06,7.47,6.07a8.77,8.77,0,0,0,4.42-.94A15.22,15.22,0,0,0,2736.88,607.39Zm-30.17-33.67a62.08,62.08,0,0,1-10.82,6.75,96.61,96.61,0,0,0-9.18,5,23.89,23.89,0,0,0-4.63,4.1,17.13,17.13,0,0,0-4.27,11.54,13.36,13.36,0,0,0,3.31,9.31,10.85,10.85,0,0,0,8.41,3.68,15,15,0,0,0,8.41-2.61,16.44,16.44,0,0,0,5.95-7q2.81-5.73,2.82-16.58Z"
            transform="translate(-288.82 -37.8)" />
        <path class="cls-1"
            d="M2733.61,615.67V591.49h1.46a45.61,45.61,0,0,0,6.36,14.19q7,9.66,16.37,9.65a15.71,15.71,0,0,0,9.91-3.24q4.54-3.6,4.55-10.17a14.4,14.4,0,0,0-3.28-9.4,20.41,20.41,0,0,0-4.59-3.93,103.33,103.33,0,0,0-9.32-5q-11.46-5.73-15.28-9.57a17.43,17.43,0,0,1-5.45-12.65,18.19,18.19,0,0,1,5.47-13.24q6.29-6.33,16.68-6.33a23.91,23.91,0,0,1,8.66,1.54l3.1,1.28a7.87,7.87,0,0,0,2.55.51c1.15,0,2.25-.85,3.28-2.56h1.82l1,19.4H2775a37.47,37.47,0,0,0-2.13-6.58,19.14,19.14,0,0,0-3.23-4.79,20.72,20.72,0,0,0-6.55-5.08,16.45,16.45,0,0,0-7.36-1.84,12.08,12.08,0,0,0-8.68,3.46,11.36,11.36,0,0,0-3.59,8.5,10.7,10.7,0,0,0,3.23,7.57q3.22,3.38,10,6.19l9.64,4.1q8.64,3.67,12.92,9.15a20.36,20.36,0,0,1,4.27,12.9,19.66,19.66,0,0,1-6.2,14.87q-7.11,6.84-18.23,6.83a36,36,0,0,1-12.21-2.22q-4-1.46-4.84-1.66a8.05,8.05,0,0,0-2.09-.22,5.38,5.38,0,0,0-4.83,2.56Z"
            transform="translate(-288.82 -37.8)" />
        <path class="cls-1"
            d="M2805.72,543h23.16v3.25h-23.16V596q0,9,3.27,12.82a11.54,11.54,0,0,0,4.55,3.33,15.31,15.31,0,0,0,6.08,1.2,13.47,13.47,0,0,0,6.82-1.58,23.1,23.1,0,0,0,6-5.77l1.36,1.11a18.52,18.52,0,0,1-8.43,7.61,32.64,32.64,0,0,1-13.54,2.47q-10.76,0-15.68-3.93a9.39,9.39,0,0,1-3.46-4.91q-.83-2.86-.82-10.3V546.29h-9.76v-1.37a25.73,25.73,0,0,0,10.95-6.92,34.25,34.25,0,0,0,4.86-6.28,43.1,43.1,0,0,0,3.49-8.07l.92-2.82h3.39Z"
            transform="translate(-288.82 -37.8)" />
        <path class="cls-1"
            d="M2856.79,613.71a31,31,0,0,0,8.48-1.37,15.34,15.34,0,0,0,5.74-3.59,14.14,14.14,0,0,0,3.88-7,59.14,59.14,0,0,0,1-12.95v-63q0-9.4-1.23-13.76a13.71,13.71,0,0,0-4.78-7.18q-4.47-3.49-13.13-3.93v-2h50.14q16.68,0,21.24.34,19.23,1.37,32.63,10.25a58.36,58.36,0,0,1,19.87,22.18,63.88,63.88,0,0,1,7.11,29.86,61.16,61.16,0,0,1-4.05,22.26,47.55,47.55,0,0,1-11.26,17.39q-10.12,9.73-25.25,12.39a134.41,134.41,0,0,1-23.06,2h-67.37Zm39.11-112v84.93a60.56,60.56,0,0,0,1,12.73,16.61,16.61,0,0,0,3.74,7.44q5.84,6.66,19,6.66,11.21,0,19.19-3.46a37.66,37.66,0,0,0,14.26-11.23,53.57,53.57,0,0,0,9.44-17.22,65,65,0,0,0,3.23-20.64,67.68,67.68,0,0,0-3.92-23.07,57.84,57.84,0,0,0-11.21-19.14,48.12,48.12,0,0,0-24.15-15,80.47,80.47,0,0,0-19.51-2Z"
            transform="translate(-288.82 -37.8)" />
        <path class="cls-1"
            d="M3065.73,607.39l1.55.85q-3.29,9-15,9a18.34,18.34,0,0,1-10.77-3,23,23,0,0,1-5.84-6.83,61,61,0,0,1-9.22,6.75,29.59,29.59,0,0,1-13.79,3.07q-10,0-15.93-4.53a14.61,14.61,0,0,1-5.89-12.21,16.05,16.05,0,0,1,4.83-11.88,21.48,21.48,0,0,1,6.29-4.23,63.26,63.26,0,0,1,10.3-3.21q7.94-1.87,11.72-3.16a24.88,24.88,0,0,0,6.33-3.07,10.4,10.4,0,0,0,4-4.62,19.74,19.74,0,0,0,1.1-7.35q0-10-4-14.61a13.18,13.18,0,0,0-4.7-3.42,14.53,14.53,0,0,0-6-1.28,12.39,12.39,0,0,0-6.65,1.8,11.14,11.14,0,0,0-4.38,4.95l-2.28,5c-1.21,2.68-3.4,4-6.56,4a7.41,7.41,0,0,1-5.2-1.92,6.29,6.29,0,0,1-2.09-4.83q0-4.35,6.57-7.35a42.64,42.64,0,0,1,8.81-2.52,56.25,56.25,0,0,1,10.27-1,54.06,54.06,0,0,1,11.78,1.37,42.45,42.45,0,0,1,10.23,3.5q5.93,3.17,7.39,8.21a35,35,0,0,1,.74,8.63v31.61c0,5.36.24,9,.72,10.94q1.56,6.06,7.48,6.07a8.8,8.8,0,0,0,4.42-.94A15.38,15.38,0,0,0,3065.73,607.39Zm-30.17-33.67a62,62,0,0,1-10.81,6.75,95.32,95.32,0,0,0-9.18,5,23.6,23.6,0,0,0-4.63,4.1,17.14,17.14,0,0,0-4.28,11.54,13.37,13.37,0,0,0,3.32,9.31,10.83,10.83,0,0,0,8.41,3.68,15,15,0,0,0,8.4-2.61,16.3,16.3,0,0,0,5.95-7q2.82-5.73,2.82-16.58Z"
            transform="translate(-288.82 -37.8)" />
        <path class="cls-1"
            d="M3053.44,543h35.37v1.88a17.55,17.55,0,0,0-5.38,1.37,6.15,6.15,0,0,0-3.56,5.8q0,3.42,3.72,12.2l15.24,36.6,13.31-30.8q4.92-11.52,4.93-16.29a8.23,8.23,0,0,0-2.28-6.1,11,11,0,0,0-6.66-2.78V543h26.07v1.88a23.76,23.76,0,0,0-5.78,2.14,12.57,12.57,0,0,0-3.61,3.5q-2.64,3.77-8.38,16.84L3090,627.55q-4.74,10.77-7.66,14a16.16,16.16,0,0,1-12.48,5.38,15.3,15.3,0,0,1-7.8-1.75q-3-1.76-3-4.57a4.24,4.24,0,0,1,1.73-3.55,7.27,7.27,0,0,1,4.54-1.32,15.38,15.38,0,0,1,5.46,1.19c2,.74,3.28,1.2,3.86,1.37a7.23,7.23,0,0,0,2,.26q5.64,0,9.18-8l2.82-6.53a17.4,17.4,0,0,0,1.82-6.34q0-3.16-3.45-11l-18.89-42.59-2.73-6.15q-2.46-5.46-3.83-7.77a9.54,9.54,0,0,0-8.2-5.29Z"
            transform="translate(-288.82 -37.8)" />
        <path class="cls-1"
            d="M3129.29,615.67V591.49h1.46a45.84,45.84,0,0,0,6.37,14.19q7,9.66,16.36,9.65a15.74,15.74,0,0,0,9.92-3.24q4.54-3.6,4.54-10.17a14.44,14.44,0,0,0-3.27-9.4,20.64,20.64,0,0,0-4.59-3.93,102.44,102.44,0,0,0-9.33-5q-11.45-5.73-15.27-9.57a17.4,17.4,0,0,1-5.46-12.65,18.19,18.19,0,0,1,5.47-13.24q6.28-6.33,16.68-6.33a23.87,23.87,0,0,1,8.66,1.54l3.1,1.28a7.87,7.87,0,0,0,2.55.51c1.16,0,2.25-.85,3.29-2.56h1.82l1,19.4h-1.91a37.38,37.38,0,0,0-2.14-6.58,18.88,18.88,0,0,0-3.23-4.79,20.68,20.68,0,0,0-6.54-5.08,16.48,16.48,0,0,0-7.36-1.84,12.06,12.06,0,0,0-8.68,3.46,11.33,11.33,0,0,0-3.59,8.5,10.66,10.66,0,0,0,3.23,7.57q3.23,3.38,10,6.19l9.64,4.1q8.64,3.67,12.92,9.15a20.3,20.3,0,0,1,4.27,12.9,19.66,19.66,0,0,1-6.19,14.87q-7.11,6.84-18.24,6.83a36,36,0,0,1-12.21-2.22c-2.68-1-4.28-1.52-4.83-1.66a8.19,8.19,0,0,0-2.1-.22,5.38,5.38,0,0,0-4.83,2.56Z"
            transform="translate(-288.82 -37.8)" />
    </g>
    <g id="Layer_9" data-name="Layer 9">
        <path class="cls-1"
            d="M3045.26,294.25,1088.49,311.36l-.34-31.11h-43.91l1.61-226.76-49.78,56.42L970.79,349.66l-37.28,82.47,39.58.76L995.3,645.07l50,62.8V477.25h46V453.66l1954.05,11.59,189.4-86.5ZM1141.71,382.18,1114.65,346l4.81-.13,3.87-6.51L3034.48,327.4l113.36,53.78Z"
            transform="translate(-288.82 -37.8)" />
        <path class="cls-2"
            d="M907.6,436.05,853.48,433a2,2,0,0,1-1.71-2.82L896.7,331.1a2,2,0,0,1,1.78-1.17l53.66-1.28a2,2,0,0,1,1.84,2.79L909.55,434.85a2,2,0,0,1-1.83,1.21Z"
            transform="translate(-288.82 -37.8)" />
        <path class="cls-3"
            d="M952.14,330.65h0m0,0L907.72,434.06,853.59,431l44.94-99.06,53.61-1.28m0-4H952l-53.6,1.28a4,4,0,0,0-3.55,2.35L850,429.34a4,4,0,0,0,.22,3.72,4,4,0,0,0,3.19,1.93l54.13,3.06h.23a4,4,0,0,0,3.67-2.42l44.37-103.27a3.94,3.94,0,0,0,.38-1.72,4,4,0,0,0-4-4Zm0,8h0Z"
            transform="translate(-288.82 -37.8)" />
        <path class="cls-2"
            d="M769.73,433a2,2,0,0,1-1.6-1,2,2,0,0,1-.1-1.87l45.91-98a2,2,0,0,1,1.76-1.15l54.83-1.26a2,2,0,0,1,1.82,2.81L827,434.87a2,2,0,0,1-1.83,1.19Z"
            transform="translate(-288.82 -37.8)" />
        <path class="cls-3"
            d="M870.53,331.79h0m0,0L825.14,434.06l-55.3-3,45.91-98,54.78-1.26m0-4h-.11l-54.76,1.26a4,4,0,0,0-3.53,2.3l-45.91,98a4,4,0,0,0,3.41,5.69l55.29,3h.22a4,4,0,0,0,3.66-2.38l45.32-102.14a4,4,0,0,0,.41-1.75,4,4,0,0,0-4-4Zm0,8Z"
            transform="translate(-288.82 -37.8)" />
        <path class="cls-2"
            d="M686,433.11a2,2,0,0,1-1.7-2.85l44.94-95.15A2,2,0,0,1,731,334l53.66-1.22a2,2,0,0,1,1.83,2.81l-44.43,99.32a2,2,0,0,1-1.82,1.19Z"
            transform="translate(-288.82 -37.8)" />
        <path class="cls-3"
            d="M784.65,334.74h0m0,0-44.42,99.32-54.13-2.95L731,336l53.61-1.22m0-4h-.1L730.94,332a4,4,0,0,0-3.52,2.3l-44.94,95.15a4,4,0,0,0,3.4,5.7L740,438.05h.22a4,4,0,0,0,3.65-2.37l44.36-99.19a3.87,3.87,0,0,0,.42-1.76,4,4,0,0,0-4-4Zm0,8h0Z"
            transform="translate(-288.82 -37.8)" />
        <path class="cls-2"
            d="M602.25,433.21a2,2,0,0,1-1.69-2.87l44.93-91.89a2,2,0,0,1,1.76-1.12l53.66-1.19a2,2,0,0,1,1.81,2.84L658.3,434.9a2,2,0,0,1-1.82,1.16Z"
            transform="translate(-288.82 -37.8)" />
        <path class="cls-3"
            d="M700.91,338.14h0m0,0-44.43,95.92-54.13-2.85,44.94-91.88,53.62-1.19m0-4h-.11l-53.6,1.19a4,4,0,0,0-3.5,2.24l-44.94,91.89a4,4,0,0,0,3.39,5.75l54.12,2.84h.21a4,4,0,0,0,3.63-2.32L704.48,340a4.06,4.06,0,0,0,.43-1.81,4,4,0,0,0-4-4Zm0,8Z"
            transform="translate(-288.82 -37.8)" />
        <path class="cls-2"
            d="M578.88,451.89a2,2,0,0,1-.42-.05c-.23,0-1.15-.07-4.81-.07-5.52,0-13.57.12-13.65.12h0a2,2,0,0,1-1.29-.47L512,412.1a2,2,0,0,1-.71-1.53V353.12a2,2,0,0,1,.72-1.54l44.17-36.51a2,2,0,0,1,1.28-.46h20.93a2,2,0,0,1,2,2l-.23,22.19,36.28-.72a2,2,0,0,1,1.81,2.84l-37.33,80.77c.74,28.24.18,28.82-.54,29.56a2.09,2.09,0,0,1-1.46.62Z"
            transform="translate(-288.82 -37.8)" />
        <path class="cls-3"
            d="M578.35,316.61h0m0,0-.25,24.26,38.3-.77-37.53,81.19s.75,28.6,0,28.6h0c-.26-.09-2.43-.12-5.21-.12-5.6,0-13.69.12-13.69.12l-46.72-39.32V353.12l44.17-36.51h20.93m0-4H557.42a4,4,0,0,0-2.55.92L510.7,350a4,4,0,0,0-1.45,3.08v57.45a4,4,0,0,0,1.42,3.06L557.4,453a4,4,0,0,0,2.57.94H560c.08,0,8.13-.12,13.63-.12,3.26,0,4.26,0,4.55.06a3.71,3.71,0,0,0,.67.06,4.06,4.06,0,0,0,2.89-1.23c1.35-1.38,1.59-1.63,1.38-17.4-.08-5.5-.21-11-.26-13.14L620,341.78a4,4,0,0,0-3.63-5.68h-.08l-34.18.68.21-20a1.09,1.09,0,0,0,0-.18,4,4,0,0,0-4-4Zm0,8h0Z"
            transform="translate(-288.82 -37.8)" />
        <path class="cls-2"
            d="M403.13,271.39a1.94,1.94,0,0,1-1-.25l-22.71-12.5-22.7,12.5a2,2,0,0,1-1,.25,2,2,0,0,1-2-2.32l4.36-26.6-18.45-18.83a2,2,0,0,1,1.13-3.37l25.41-3.87,11.38-24.15a2,2,0,0,1,3.62,0l11.38,24.15,25.41,3.87a2,2,0,0,1,1.13,3.37l-18.44,18.83,4.35,26.6a2,2,0,0,1-2,2.32Z"
            transform="translate(-288.82 -37.8)" />
        <path class="cls-3"
            d="M379.46,193.1l11.84,25.12,26.46,4-19.15,19.55,4.52,27.6-23.67-13-23.67,13,4.52-27.6-19.15-19.55,26.47-4,11.83-25.12m0-4a4,4,0,0,0-3.62,2.3l-10.92,23.18-24.36,3.71a4,4,0,0,0-2.25,6.75L356,243.14l-4.2,25.61a4,4,0,0,0,5.88,4.15l21.74-12,21.74,12a4,4,0,0,0,5.88-4.15l-4.19-25.61L420.62,225a4,4,0,0,0-2.26-6.75L394,214.58,383.08,191.4a4,4,0,0,0-3.62-2.3Z"
            transform="translate(-288.82 -37.8)" />
        <path class="cls-2"
            d="M509,165.52a1.94,1.94,0,0,1-1-.25l-22.71-12.5-22.7,12.5a2,2,0,0,1-2.12-.12,2,2,0,0,1-.82-2l4.36-26.61-18.44-18.82a2,2,0,0,1-.47-2,2,2,0,0,1,1.59-1.35l25.41-3.86,11.38-24.15a2,2,0,0,1,3.62,0l11.38,24.15,25.41,3.86a2,2,0,0,1,1.6,1.35,2,2,0,0,1-.47,2l-18.44,18.82L511,163.2a2,2,0,0,1-.82,2A2,2,0,0,1,509,165.52Z"
            transform="translate(-288.82 -37.8)" />
        <path class="cls-3"
            d="M485.33,87.23l11.84,25.11,26.46,4-19.15,19.55,4.52,27.6-23.67-13-23.67,13,4.52-27.6L447,116.37l26.46-4,11.83-25.11m0-4a4,4,0,0,0-3.61,2.3l-10.93,23.18-24.36,3.71a4,4,0,0,0-2.25,6.75l17.73,18.1-4.19,25.6a4,4,0,0,0,3.94,4.65,3.89,3.89,0,0,0,1.93-.5l21.74-12,21.74,12a3.94,3.94,0,0,0,1.93.5,4.05,4.05,0,0,0,2.31-.73,4,4,0,0,0,1.64-3.92l-4.19-25.6,17.73-18.1a4,4,0,0,0-2.26-6.75l-24.35-3.71L489,85.53a4,4,0,0,0-3.62-2.3Z"
            transform="translate(-288.82 -37.8)" />
        <path class="cls-2"
            d="M610.26,120.09a1.92,1.92,0,0,1-1.15-.37,2,2,0,0,1-.82-2l4.35-26.6L594.2,72.34A2,2,0,0,1,595.33,69l25.41-3.87L632.12,41a2,2,0,0,1,3.62,0L647.12,65.1,672.53,69a2,2,0,0,1,1.13,3.37L655.22,91.17l4.35,26.6a2,2,0,0,1-.82,2,2,2,0,0,1-1.15.37,2,2,0,0,1-1-.25l-22.7-12.5-22.7,12.5A2,2,0,0,1,610.26,120.09Z"
            transform="translate(-288.82 -37.8)" />
        <path class="cls-3"
            d="M633.93,41.8l11.83,25.12,26.47,4L653.08,90.49l4.52,27.6-23.67-13-23.67,13,4.52-27.6L595.63,70.94l26.46-4L633.93,41.8m0-4a4,4,0,0,0-3.62,2.3L619.39,63.28,595,67a4,4,0,0,0-2.26,6.75l17.74,18.1-4.2,25.6a4,4,0,0,0,4,4.65,3.91,3.91,0,0,0,1.93-.5l21.74-12,21.74,12a3.91,3.91,0,0,0,1.93.5,4,4,0,0,0,3.95-4.65l-4.2-25.6,17.73-18.1A4,4,0,0,0,672.83,67l-24.36-3.71L637.55,40.1a4,4,0,0,0-3.62-2.3Z"
            transform="translate(-288.82 -37.8)" />
        <path class="cls-2"
            d="M813.85,153.79a1.94,1.94,0,0,1-1-.25L790.18,141l-22.7,12.5a1.94,1.94,0,0,1-1,.25,2,2,0,0,1-2-2.32l4.36-26.6L750.46,106a2,2,0,0,1,1.13-3.37L777,98.8l11.38-24.15a2,2,0,0,1,3.61,0L803.37,98.8l25.41,3.87a2,2,0,0,1,1.13,3.37l-18.44,18.83,4.36,26.6a2,2,0,0,1-2,2.32Z"
            transform="translate(-288.82 -37.8)" />
        <path class="cls-3"
            d="M790.18,75.5,802,100.62l26.46,4-19.15,19.55,4.52,27.6-23.67-13-23.66,13,4.52-27.6-19.15-19.55,26.46-4L790.18,75.5m0-4a4,4,0,0,0-3.61,2.3L775.64,97l-24.35,3.71a4,4,0,0,0-2.26,6.75l17.73,18.1-4.19,25.61a4,4,0,0,0,5.87,4.15l21.74-12,21.74,12a4,4,0,0,0,1.93.49,4,4,0,0,0,3.95-4.64l-4.19-25.61,17.73-18.1a4,4,0,0,0-2.26-6.75L804.73,97,793.8,73.8a4,4,0,0,0-3.62-2.3Z"
            transform="translate(-288.82 -37.8)" />
        <path class="cls-2"
            d="M923.64,264.09a1.94,1.94,0,0,1-1-.25L900,251.34l-22.7,12.5a2,2,0,0,1-1,.25,2,2,0,0,1-1.15-.37,2,2,0,0,1-.82-2l4.36-26.6-18.44-18.83a2,2,0,0,1,1.12-3.37l25.41-3.87L898.16,185a2,2,0,0,1,3.62,0l11.38,24.15L938.57,213a2,2,0,0,1,1.13,3.37l-18.44,18.83,4.36,26.6a2,2,0,0,1-.82,2A2,2,0,0,1,923.64,264.09Z"
            transform="translate(-288.82 -37.8)" />
        <path class="cls-3"
            d="M900,185.8l11.84,25.12,26.46,4-19.15,19.55,4.52,27.6-23.67-13-23.67,13,4.52-27.6-19.15-19.55,26.47-4L900,185.8m0-4a4,4,0,0,0-3.62,2.3l-10.92,23.18L861.07,211a4,4,0,0,0-2.25,6.75l17.73,18.1-4.19,25.6a4,4,0,0,0,1.63,3.92,4.05,4.05,0,0,0,2.31.73,3.89,3.89,0,0,0,1.93-.5l21.74-12,21.74,12a3.91,3.91,0,0,0,1.93.5,4.05,4.05,0,0,0,2.31-.73,4,4,0,0,0,1.64-3.92l-4.19-25.6,17.73-18.1a4,4,0,0,0-2.26-6.75l-24.35-3.71L903.59,184.1a4,4,0,0,0-3.62-2.3Z"
            transform="translate(-288.82 -37.8)" />
        <path class="cls-2"
            d="M928.75,574.05a2,2,0,0,1-1-.25l-22.7-12.5-22.71,12.5a2,2,0,0,1-2.11-.12,2,2,0,0,1-.82-1.95l4.35-26.61L865.35,526.3a2,2,0,0,1,1.13-3.38l25.41-3.86,11.38-24.15a2,2,0,0,1,3.62,0l11.38,24.15,25.41,3.86a2,2,0,0,1,1.13,3.38l-18.45,18.82,4.36,26.61a2,2,0,0,1-.82,1.95A2,2,0,0,1,928.75,574.05Z"
            transform="translate(-288.82 -37.8)" />
        <path class="cls-3"
            d="M905.08,495.76l11.83,25.11,26.47,4-19.15,19.55,4.52,27.6-23.67-13-23.67,13,4.52-27.6L866.78,524.9l26.46-4,11.84-25.11m0-4a4,4,0,0,0-3.62,2.29l-10.93,23.19L866.18,521a4,4,0,0,0-2.26,6.75l17.73,18.1-4.19,25.6a4,4,0,0,0,1.64,3.92,4,4,0,0,0,4.24.23l21.74-12,21.74,12a4,4,0,0,0,5.88-4.15l-4.2-25.6,17.73-18.1A4,4,0,0,0,944,521l-24.36-3.71L908.7,494.05a4,4,0,0,0-3.62-2.29Z"
            transform="translate(-288.82 -37.8)" />
        <path class="cls-2"
            d="M810.79,691a2,2,0,0,1-1-.24l-22.71-12.5-22.7,12.5a2.11,2.11,0,0,1-1,.24,2,2,0,0,1-1.15-.36,2,2,0,0,1-.82-2l4.35-26.6-18.44-18.82a2,2,0,0,1-.46-2,2,2,0,0,1,1.59-1.34L773.93,636l11.38-24.15a2,2,0,0,1,3.62,0L800.31,636l25.41,3.87a2,2,0,0,1,1.6,1.34,2,2,0,0,1-.47,2l-18.44,18.82,4.35,26.6a2,2,0,0,1-2,2.32Z"
            transform="translate(-288.82 -37.8)" />
        <path class="cls-3"
            d="M787.12,612.7,799,637.81l26.46,4-19.15,19.54,4.52,27.6-23.67-13-23.67,13,4.52-27.6-19.15-19.54,26.47-4,11.83-25.11m0-4A4,4,0,0,0,783.5,611l-10.92,23.19-24.36,3.7a4,4,0,0,0-2.25,6.76l17.73,18.1-4.2,25.6a4,4,0,0,0,5.88,4.15l21.74-12,21.74,12a4,4,0,0,0,5.88-4.15l-4.2-25.6,17.74-18.1a4,4,0,0,0-2.26-6.76l-24.35-3.7L790.74,611a4,4,0,0,0-3.62-2.29Z"
            transform="translate(-288.82 -37.8)" />
        <path class="cls-2"
            d="M610.26,725.2a2,2,0,0,1-2-2.33l4.35-26.6L594.2,677.45a2,2,0,0,1-.47-2,2,2,0,0,1,1.6-1.35l25.41-3.86,11.38-24.15a2,2,0,0,1,3.62,0l11.38,24.15,25.41,3.86a2,2,0,0,1,1.59,1.35,2,2,0,0,1-.46,2l-18.44,18.82,4.35,26.6a2,2,0,0,1-.82,2,2,2,0,0,1-2.12.12l-22.7-12.5L611.22,725A1.94,1.94,0,0,1,610.26,725.2Z"
            transform="translate(-288.82 -37.8)" />
        <path class="cls-3"
            d="M633.93,646.91,645.76,672l26.47,4L653.08,695.6l4.52,27.6-23.67-13-23.67,13,4.52-27.6-19.15-19.55,26.46-4,11.84-25.11m0-4a4,4,0,0,0-3.62,2.29l-10.92,23.19L595,672.09a4,4,0,0,0-2.26,6.76L610.51,697l-4.2,25.6a4,4,0,0,0,5.88,4.15l21.74-12,21.74,12a4,4,0,0,0,5.88-4.15l-4.2-25.6,17.73-18.1a4,4,0,0,0-2.25-6.76l-24.36-3.7L637.55,645.2a4,4,0,0,0-3.62-2.29Z"
            transform="translate(-288.82 -37.8)" />
        <path class="cls-2"
            d="M507.47,678.73a1.94,1.94,0,0,1-1-.25L483.8,666l-22.7,12.5a2,2,0,0,1-1,.25,2,2,0,0,1-1.15-.37,2,2,0,0,1-.82-2l4.36-26.61L444.08,631a2,2,0,0,1,1.12-3.38l25.41-3.86L482,599.59a2,2,0,0,1,3.62,0L497,623.74l25.41,3.86a2,2,0,0,1,1.13,3.38L505.09,649.8l4.35,26.61a2,2,0,0,1-.82,2A1.92,1.92,0,0,1,507.47,678.73Z"
            transform="translate(-288.82 -37.8)" />
        <path class="cls-3"
            d="M483.8,600.44l11.84,25.11,26.46,4L503,649.13l4.52,27.6-23.67-13-23.67,13,4.52-27.6L445.5,629.58l26.47-4,11.83-25.11m0-4a4,4,0,0,0-3.62,2.3l-10.92,23.18-24.36,3.71a4,4,0,0,0-2.25,6.75l17.73,18.1-4.19,25.6a4,4,0,0,0,1.63,3.92,4.05,4.05,0,0,0,2.31.73,3.91,3.91,0,0,0,1.93-.5l21.74-12,21.74,12a4,4,0,0,0,5.88-4.15l-4.19-25.6L525,632.38a4,4,0,0,0-2.26-6.75l-24.35-3.71-10.93-23.18a4,4,0,0,0-3.62-2.3Z"
            transform="translate(-288.82 -37.8)" />
        <path class="cls-2"
            d="M401.77,573a2,2,0,0,1-1-.25l-22.7-12.5-22.7,12.5a2,2,0,0,1-2.12-.12,2,2,0,0,1-.82-2l4.35-26.6-18.44-18.82a2,2,0,0,1-.47-2,2,2,0,0,1,1.6-1.34L364.91,518l11.38-24.15a2,2,0,0,1,3.62,0L391.29,518l25.41,3.86a2,2,0,0,1,1.59,1.34,2,2,0,0,1-.46,2L399.39,544.1l4.35,26.6a2,2,0,0,1-.82,2A2,2,0,0,1,401.77,573Z"
            transform="translate(-288.82 -37.8)" />
        <path class="cls-3"
            d="M378.1,494.74l11.83,25.11,26.47,4-19.15,19.55,4.52,27.6L378.1,558l-23.67,13,4.52-27.6L339.8,523.88l26.47-4,11.83-25.11m0-4a4,4,0,0,0-3.62,2.29l-10.92,23.19-24.36,3.7a4,4,0,0,0-2.26,6.76l17.74,18.1-4.2,25.6a4,4,0,0,0,5.88,4.15l21.74-12,21.74,12a4,4,0,0,0,5.88-4.15l-4.2-25.6,17.73-18.1a4,4,0,0,0-2.25-6.76l-24.36-3.7L381.72,493a4,4,0,0,0-3.62-2.29Z"
            transform="translate(-288.82 -37.8)" />
        <path class="cls-2"
            d="M354.79,421.83a1.94,1.94,0,0,1-1-.25l-22.71-12.5-22.7,12.5a2,2,0,0,1-1,.25,2,2,0,0,1-1.15-.37,2,2,0,0,1-.82-2l4.35-26.6-18.44-18.82a2,2,0,0,1,1.13-3.38l25.41-3.86,11.38-24.15a2,2,0,0,1,3.62,0l11.38,24.15,25.41,3.86a2,2,0,0,1,1.13,3.38L352.41,392.9l4.35,26.6a2,2,0,0,1-.82,2A1.92,1.92,0,0,1,354.79,421.83Z"
            transform="translate(-288.82 -37.8)" />
        <path class="cls-3"
            d="M331.12,343.54,343,368.65l26.46,4-19.15,19.55,4.52,27.6-23.67-13-23.67,13,4.52-27.6-19.15-19.55,26.47-4,11.83-25.11m0-4a4,4,0,0,0-3.62,2.29L316.58,365l-24.36,3.71a4,4,0,0,0-2.25,6.75l17.73,18.1-4.2,25.6a4,4,0,0,0,5.88,4.15l21.74-12,21.74,12a4,4,0,0,0,5.88-4.15l-4.2-25.6,17.74-18.1a4,4,0,0,0-2.26-6.75L345.67,365l-10.93-23.19a4,4,0,0,0-3.62-2.29Z"
            transform="translate(-288.82 -37.8)" />
    </g>
</svg>